<?xml version="1.0" encoding="UTF-8"?>
<!DOCTYPE svg PUBLIC "-//W3C//DTD SVG 1.1//EN" "http://www.w3.org/Graphics/SVG/1.1/DTD/svg11.dtd">
<!-- Creator: CorelDRAW (Versión OEM) -->
<svg xmlns="http://www.w3.org/2000/svg" xml:space="preserve" width="123.256mm" height="22.2376mm" version="1.1" style="shape-rendering:geometricPrecision; text-rendering:geometricPrecision; image-rendering:optimizeQuality; fill-rule:evenodd; clip-rule:evenodd"
viewBox="0 0 657.29 118.59"
 xmlns:xlink="http://www.w3.org/1999/xlink"
 xmlns:xodm="http://www.corel.com/coreldraw/odm/2003">
 <defs>
  <style type="text/css">
   <![CDATA[
    .fil0 {fill:#FEFEFE}
   ]]>
  </style>
 </defs>
 <g id="Capa_x0020_1">
  <metadata id="CorelCorpID_0Corel-Layer"/>
  <path class="fil0" d="M69.32 0l0 58.24 -42.54 -58.24 -26.78 0 0 111.03 29.66 0 0 -60.25 44.02 60.25 25.3 0 0 -111.03 -29.66 0zm532.58 30.21c1.03,-1.12 2.1,-2.09 3.31,-2.97 1.16,-0.85 2.81,-1.64 3.66,-2.34l-3.24 -4.15c-3.72,5.13 -7.23,8.29 -13,9.63l-4.67 1.44c-8.78,3.89 -13.34,13.08 -14.49,22.55 -0.22,1.8 -0.15,3.28 -0.18,4.94 -0.08,4.96 0.93,9.77 2.36,14.36 0.93,2.97 2.38,6.36 3.94,9.17 8.22,14.8 23.84,27.5 40.21,31.04 13.04,2.82 22.21,0.93 33.46,-4.91 1.36,-0.71 2.69,-1.54 4.04,-2.3 -0.2,-1.29 -0.37,-2.59 -0.51,-3.9l0 0 -0 -0.05 -0 -0.01c-0.1,-0.94 -0.18,-1.89 -0.25,-2.84 -22.41,-0.77 -77.48,-24.49 -54.63,-69.67zm-3.95 78.74c-2.77,0 -4.81,2.05 -4.81,4.82 0,2.76 2.04,4.81 4.81,4.81 2.77,0 4.8,-2.05 4.8,-4.81 0,-2.77 -2.03,-4.82 -4.8,-4.82zm0 8.17c-1.91,0 -3.34,-1.42 -3.34,-3.35 0,-1.91 1.4,-3.36 3.34,-3.36 1.92,0 3.34,1.43 3.34,3.36 0,1.94 -1.42,3.35 -3.34,3.35zm2.03 -3.95c0,-0.98 -0.66,-1.66 -1.65,-1.66l-2.17 0 0 4.45 1.42 0 0 -1.22 0.39 0 0.66 1.22 1.49 0 -0.81 -1.49c0.41,-0.27 0.67,-0.72 0.67,-1.3zm-2.4 -0.45l0.5 0c0.32,0 0.48,0.17 0.48,0.42 0,0.25 -0.16,0.43 -0.48,0.43l-0.5 0 0 -0.86zm-30.55 -87.43l-3.01 6.61c-7.06,-5.82 -16.07,-9.2 -26.17,-9.2 -26.2,0 -44.92,18.88 -44.92,45.42 0,26.62 18.72,45.71 44.92,45.71 9.94,0 18.82,-3.28 25.86,-8.96l2.51 6.05 22.79 0 0 -9.6c-2.52,-2.36 -4.84,-4.89 -6.9,-7.56 -8.93,-11.59 -12.17,-20.62 -12.86,-35.14 -0.11,-10.03 3.74,-21.78 12.73,-28.15 1.24,-0.88 2.97,-1.78 4.27,-2.3 1.13,-0.46 1.98,-0.73 2.76,-0.94l0 -1.94 -21.97 0zm-25.25 62.42c-11.05,0 -19.19,-8.33 -19.19,-19.54 0,-11.13 8.06,-19.48 19.19,-19.48 11.05,0 19.19,8.35 19.19,19.48 0,11.18 -8.14,19.54 -19.19,19.54zm-85.27 -64.88c-11.02,0 -20.49,4.26 -26.86,11.34l-4.04 -8.8 -20.7 0 0 85.66 29.5 0 0 -45.74c0,-10.97 5.26,-17.4 14.43,-17.4 7.38,0 11.1,4.94 11.1,14.91l0 48.22 29.5 0 0 -52.29c0,-21.81 -13.06,-35.9 -32.94,-35.9zm-77.07 2.46l-3.01 6.61c-7.06,-5.82 -16.07,-9.2 -26.17,-9.2 -17.66,0 -31.91,8.57 -39.33,22.29l0 -20.1 -7.8 0c-10.2,0 -17.55,2.93 -23.58,9.91l-4.6 -9.44 -19.77 0 0 85.66 29.5 0 0 -43.65c0,-10.94 4.36,-15.52 14.8,-15.52l8.46 0c-1.69,4.97 -2.59,10.43 -2.59,16.26 0,26.62 18.72,45.71 44.92,45.71 9.94,0 18.82,-3.28 25.86,-8.96l2.51 6.05 22.79 0 0 -85.63 -21.97 0zm-25.25 62.42c-11.05,0 -19.19,-8.33 -19.19,-19.54 0,-11.13 8.06,-19.48 19.19,-19.48 11.05,0 19.19,8.35 19.19,19.48 0,11.18 -8.14,19.54 -19.19,19.54zm-113.83 -2.54c-6.21,0 -9.91,-3.7 -9.91,-9.83l0 -27.28 20.75 0 0 -22.68 -21.55 0 0 -25.04 -6.03 0 -36.77 39.13 0 -14.09 -29.5 0 0 47.53c0,8.94 -4.76,14.33 -12.64,14.33 -7.88,0 -12.74,-5.29 -12.74,-14.33l0 -47.53 -29.5 0 0 48.83c0,23.93 16.95,39.52 42.25,39.52 25.3,0 42.14,-15.6 42.14,-39.52l0 -26.15 14.09 0 0 32.36c0,19.03 11.53,30.61 30.46,30.61l20.28 0 0 -25.86 -11.32 0z"/>
 </g>
</svg>
