<?xml version="1.0" encoding="UTF-8"?>
<!DOCTYPE svg PUBLIC "-//W3C//DTD SVG 1.1//EN" "http://www.w3.org/Graphics/SVG/1.1/DTD/svg11.dtd">
<!-- Creator: CorelDRAW (Versión OEM) -->
<svg xmlns="http://www.w3.org/2000/svg" xml:space="preserve" width="500.829mm" height="90.3588mm" version="1.1" style="shape-rendering:geometricPrecision; text-rendering:geometricPrecision; image-rendering:optimizeQuality; fill-rule:evenodd; clip-rule:evenodd"
viewBox="0 0 48535.91 8756.78"
 xmlns:xlink="http://www.w3.org/1999/xlink"
 xmlns:xodm="http://www.corel.com/coreldraw/odm/2003">
 <defs>
  <style type="text/css">
   <![CDATA[
    .fil2 {fill:#FFED00}
    .fil0 {fill:#FECC00}
    .fil1 {fill:#FECC00;fill-rule:nonzero}
   ]]>
  </style>
 </defs>
 <g id="Capa_x0020_1">
  <metadata id="CorelCorpID_0Corel-Layer"/>
  <polygon class="fil0" points="5118.58,0 5118.58,4300.62 1977.53,0 -0,0 -0,8199.06 2190.34,8199.06 2190.34,3750.11 5440.69,8199.06 7308.88,8199.06 7308.88,0 "/>
  <path class="fil1" d="M10686.39 8398.2c1868.21,0 3111.74,-1151.77 3111.74,-2918.48l0 -3605.63 -2178.59 0 0 3509.98c0,659.83 -351.42,1058.06 -933.15,1058.06 -581.74,0 -940.95,-390.44 -940.95,-1058.06l0 -3509.98 -2178.59 0 0 3605.63c0,1766.71 1251.32,2918.48 3119.54,2918.48l0 0z"/>
  <path class="fil1" d="M17749.07 6289.85c-458.76,0 -732.09,-273.28 -732.09,-726.21l0 -2014.59 1532.45 0 0 -1674.95 -1591 0 0 -1848.69 -445.09 0 -2832.59 3014.13 0 509.51 1157.63 0 0 2389.43c0,1405.53 851.16,2260.59 2248.89,2260.59l1497.32 0 0 -1909.22 -835.52 0z"/>
  <path class="fil1" d="M22383.25 1838.93c-753.54,0 -1296.25,216.69 -1741.35,732.08l-339.67 -696.92 -1460.23 0 0 6324.98 2178.64 0 0 -3222.99c0,-808.2 322.07,-1145.95 1093.18,-1145.95l845.3 0 0 -1991.2 -575.87 0z"/>
  <path class="fil0" d="M28018.87 1868.22l-222.53 488.05c-521.26,-429.5 -1186.94,-679.36 -1932.65,-679.36 -1934.57,0 -3316.71,1393.83 -3316.71,3353.8 0,1965.8 1382.14,3375.27 3316.71,3375.27 734.01,0 1389.94,-242.06 1909.22,-661.8l185.43 447.06 1682.79 0 0 -6323.04 -1622.26 0zm-1864.33 4609.03c-815.99,0 -1417.26,-614.93 -1417.26,-1442.63 0,-821.86 595.43,-1438.76 1417.26,-1438.76 816.04,0 1417.31,616.91 1417.31,1438.76 0,825.76 -601.27,1442.63 -1417.31,1442.63l0 0z"/>
  <path class="fil0" d="M33709.88 1686.65c-814.06,0 -1512.91,314.31 -1983.4,837.5l-298.68 -650.06 -1528.54 0 0 6324.98 2178.64 0 0 -3377.24c0,-810.13 388.46,-1284.52 1065.85,-1284.52 544.64,0 819.89,365.07 819.89,1101.02l0 3560.74 2178.64 0 0 -3861.35c0,-1610.54 -964.37,-2651.06 -2432.39,-2651.06l0 0z"/>
  <path class="fil0" d="M41870.67 1868.22l-222.53 488.05c-521.25,-429.5 -1186.94,-679.36 -1932.64,-679.36 -1934.57,0 -3316.71,1393.83 -3316.71,3353.8 0,1965.8 1382.14,3375.27 3316.71,3375.27 734.01,0 1389.94,-242.06 1909.22,-661.8l185.43 447.06 1682.78 0 0 -708.96c-186.25,-174.29 -357.55,-361.37 -509.36,-558.38 -659.59,-855.93 -898.65,-1522.32 -949.84,-2594.79 -7.88,-740.83 275.95,-1608.37 940.12,-2078.39 91.75,-64.93 219.14,-131.36 315.06,-170.2 83.72,-33.86 146.57,-53.79 204.02,-69.34l0 -142.98 -1622.26 0zm-1864.32 4609.03c-815.99,0 -1417.26,-614.93 -1417.26,-1442.63 0,-821.86 595.43,-1438.76 1417.26,-1438.76 816.03,0 1417.3,616.91 1417.3,1438.76 0,825.76 -601.27,1442.63 -1417.3,1442.63z"/>
  <path class="fil1" d="M44154.22 8045.6c-204.53,0 -355.04,151.06 -355.04,355.85 0,203.47 150.51,355.32 355.04,355.32 204.8,0 354.51,-151.06 354.51,-355.32 0,-204.79 -149.71,-355.85 -354.51,-355.85zm0 603.13c-141.37,0 -247,-104.82 -247,-247.28 0,-141.09 103.74,-247.8 247,-247.8 141.65,0 246.46,105.89 246.46,247.8 0,143.53 -104.82,247.28 -246.46,247.28zm149.71 -291.35c0,-72.02 -48.92,-122.83 -121.75,-122.83l-160.46 0 0 328.7 104.82 0 0 -90.3 29.02 0 48.65 90.3 110.19 0 -59.66 -109.93c30.63,-19.89 49.18,-53.49 49.18,-95.95l0 0zm-177.39 -33.06l36.82 0c23.66,0 35.75,12.9 35.75,31.18 0,18.55 -12.09,31.99 -35.75,31.99l-36.82 0 0 -63.17z"/>
  <path class="fil0" d="M48497.91 7585.24c-46.31,15.75 -104.32,29.02 -138.5,40.48l-203.39 49.14c-91.28,8.15 -58.32,37.88 -204.57,45.24l-136.05 29.31c-33.19,8.27 -31.11,10.16 -68.67,12.4 -28.51,1.73 -46.39,-2.25 -71.16,-0.91 -44.93,2.4 -27.88,6.93 -67.89,14.96l-420.32 17.25c-254.86,-7.09 -624.42,-57.02 -866.47,-112.23 -1284.52,-292.93 -2412.59,-1243.72 -2892.65,-2466.65l-110.69 -334c-12.75,-36.89 -16.26,-26.78 -24.96,-66.67 -34.53,-158.97 -34.06,-72.38 -37.92,-205.04 -1.77,-61.51 -60.17,-258.83 -55.8,-344.12l-10.43 -281c4.49,-193.9 0.27,-216.82 37.6,-429.77 81.09,-462.15 334.8,-865.97 689.44,-1160.01l530.11 -162.64c76.04,-82.73 155.03,-154.13 244.25,-219.17 85.97,-62.69 207.18,-121.25 270.33,-172.56l-239.23 -306.39c-274.86,379.01 -533.92,611.86 -960.31,711.16l-345.03 106.2c-648.12,287.3 -985.16,965.87 -1069.63,1665.03 -16.07,133.02 -10.99,242.26 -13.07,364.73 -6.14,366.3 68.71,721.79 174.25,1060.3 68.4,219.38 175.94,469.7 291.12,677.03 607.33,1093.06 1760.21,2030.42 2969.2,2292.28 962.75,208.55 1640.13,68.99 2470.43,-362.59 100.18,-52.1 198.27,-113.8 298.01,-169.57 -15,-96.67 -27.6,-194.09 -38,-292.18z"/>
  <path class="fil2" d="M48479.32 7375.42c-1654.71,-57.1 -5721.38,-1808.44 -4033.74,-5144.45 -271.52,-8.07 -316.17,-24.05 -547.88,168.07 -2509.96,2224 1526.15,6582.23 4600.68,5190.36 -7.57,-71 -13.95,-142.31 -19.06,-213.98z"/>
 </g>
</svg>
