<?xml version="1.0" encoding="UTF-8"?>
<!DOCTYPE svg PUBLIC "-//W3C//DTD SVG 1.1//EN" "http://www.w3.org/Graphics/SVG/1.1/DTD/svg11.dtd">
<!-- Creator: CorelDRAW (Versión OEM) -->
<svg xmlns="http://www.w3.org/2000/svg" xml:space="preserve" width="47.3139mm" height="47.3139mm" version="1.1" style="shape-rendering:geometricPrecision; text-rendering:geometricPrecision; image-rendering:optimizeQuality; fill-rule:evenodd; clip-rule:evenodd"
viewBox="0 0 4717.16 4717.16"
 xmlns:xlink="http://www.w3.org/1999/xlink"
 xmlns:xodm="http://www.corel.com/coreldraw/odm/2003">
 <defs>
  <style type="text/css">
   <![CDATA[
    .str0 {stroke:#FEFEFE;stroke-width:19.94;stroke-miterlimit:22.9256}
    .fil3 {fill:#FFED00}
    .fil1 {fill:#FECC00}
    .fil0 {fill:#D3462D}
    .fil2 {fill:#FFD318;fill-rule:nonzero}
   ]]>
  </style>
 </defs>
 <g id="Capa_x0020_1">
  <metadata id="CorelCorpID_0Corel-Layer"/>
  <rect class="fil0 str0" x="9.97" y="9.97" width="4697.22" height="4697.22" rx="408.46" ry="408.46"/>
  <g id="_2635234411776">
   <path class="fil1" d="M1934.11 1324.3l0 1098.9 -802.6 -1098.9 -505.31 0 0 2095.02 559.68 0 0 -1136.79 830.54 1136.79 477.36 0 0 -334.6c-118.94,-111.64 -220.77,-240.32 -296.43,-376.48 -37.29,-67.1 -72.09,-148.13 -94.24,-219.13 -34.15,-109.56 -58.37,-224.61 -56.39,-343.17 0.68,-39.63 -0.96,-74.99 4.22,-118.04 27.35,-226.28 136.44,-445.91 346.22,-538.9l96.62 -29.74 0 -134.94 -559.67 0zm559.67 1278.42l0 -1038.03c-80.43,86.89 -137.02,194.3 -157.97,313.78 -12.08,68.91 -10.72,76.34 -12.19,139.1l3.39 90.95c-1.42,27.61 17.5,91.47 18.07,111.37 1.25,42.95 1.1,14.92 12.26,66.37 2.82,12.91 3.97,9.64 8.09,21.57l35.83 108.1c25.44,64.81 56.53,127.25 92.53,186.78z"/>
   <path class="fil2" d="M2679.18 3237.61c-52.26,0 -90.73,38.59 -90.73,90.93 0,51.99 38.46,90.8 90.73,90.8 52.33,0 90.59,-38.59 90.59,-90.8 0,-52.33 -38.25,-90.93 -90.59,-90.93zm0 154.12c-36.12,0 -63.11,-26.79 -63.11,-63.19 0,-36.05 26.5,-63.32 63.11,-63.32 36.19,0 62.98,27.06 62.98,63.32 0,36.68 -26.79,63.19 -62.98,63.19zm38.25 -74.45c0,-18.4 -12.5,-31.39 -31.12,-31.39l-41 0 0 83.99 26.78 0 0 -23.07 7.42 0 12.43 23.07 28.16 0 -15.24 -28.09c7.83,-5.08 12.57,-13.67 12.57,-24.52l0 0zm-45.33 -8.45l9.41 0c6.04,0 9.13,3.3 9.13,7.97 0,4.75 -3.09,8.18 -9.13,8.18l-9.41 0 0 -16.14z"/>
   <path class="fil1" d="M4079.46 3129.3c-14.01,4.77 -31.56,8.78 -41.9,12.25l-61.54 14.87c-27.63,2.47 -17.66,11.47 -61.9,13.7l-41.18 8.86c-10.04,2.5 -9.41,3.07 -20.78,3.75 -8.63,0.53 -14.04,-0.68 -21.54,-0.27 -13.6,0.73 -8.43,2.09 -20.55,4.53l-127.19 5.22c-77.12,-2.15 -188.95,-17.26 -262.2,-33.97 -388.7,-88.64 -730.06,-376.35 -875.32,-746.41l-33.5 -101.08c-3.86,-11.17 -4.92,-8.11 -7.56,-20.17 -10.45,-48.1 -10.3,-21.9 -11.48,-62.05 -0.53,-18.61 -18.21,-78.32 -16.88,-104.14l-3.16 -85.02c1.36,-58.67 0.09,-65.61 11.39,-130.06 24.53,-139.84 101.3,-262.04 208.62,-351.02l160.42 -49.21c23,-25.03 46.91,-46.64 73.91,-66.32 26.01,-18.97 62.69,-36.69 81.8,-52.21l-72.38 -92.72c-83.18,114.68 -161.57,185.15 -290.6,215.2l-104.41 32.13c-196.12,86.94 -298.11,292.28 -323.67,503.85 -4.86,40.25 -3.32,73.3 -3.96,110.36 -1.85,110.85 20.8,218.42 52.73,320.85 20.7,66.38 53.24,142.13 88.09,204.87 183.79,330.76 532.64,614.41 898.49,693.65 291.33,63.11 496.31,20.88 747.56,-109.72 30.32,-15.76 60,-34.44 90.19,-51.31 -4.55,-29.26 -8.35,-58.74 -11.51,-88.42z"/>
   <path class="fil3" d="M4073.83 3065.81c-500.72,-17.28 -1731.31,-547.24 -1220.62,-1556.72 -82.16,-2.44 -95.68,-7.28 -165.79,50.86 -759.52,672.99 461.82,1991.8 1392.17,1570.62 -2.28,-21.49 -4.22,-43.06 -5.76,-64.75z"/>
  </g>
 </g>
</svg>
